<?xml version="1.0"?>
<svg xmlns="http://www.w3.org/2000/svg" version="1.1" width="170" height="170"><svg viewBox="0 0 200 200" id="Live-Broadcast-1--Streamline-Brooklyn.svg" x="0" y="0" width="170" height="170"><desc>Live Broadcast 1 Streamline Illustration: https://streamlinehq.com</desc><path d="M44.128 83.516c-1.717 -0.383 -3.561 -0.446 -5.147 -1.759 -1.639 -1.336 -1.79 -2.765 -2.037 -4.867 -0.484 -4.144 -0.314 -8.173 -0.827 -12.4a37.318 37.318 0 0 0 -0.908 -4.7c0.034 -1.684 1.2 -4.952 1.77 -6.521a51.069 51.069 0 0 1 4.4 -9.385 0.271 0.271 0 0 0 -0.093 -0.361 10.659 10.659 0 0 0 -1.272 -0.878 6.754 6.754 0 0 1 2.005 -1.974c0.141 -0.093 0.28 -0.175 0.3 -0.35a0.162 0.162 0 0 0 -0.116 -0.162c-0.182 -0.07 -0.435 0.145 -0.827 0.431a5.386 5.386 0 0 0 -1.676 1.879 11.024 11.024 0 0 0 -3.986 -1.15c-0.337 -0.023 -0.419 0.547 -0.081 0.594a11.467 11.467 0 0 1 5.181 1.909c-3.593 6.221 -5.722 13.025 -5.891 15.149a6.1 6.1 0 0 0 -0.408 -0.955 0.243 0.243 0 0 0 -0.442 0.187c0.116 0.466 0.309 0.932 0.454 1.408 1.754 5.754 1.188 10.921 1.816 16.942a19.983 19.983 0 0 0 0.524 3.085c0.861 2.694 3.64 4.048 6.474 4.227a5.538 5.538 0 0 0 0.745 -0.034c0.158 -0.012 0.229 -0.273 0.042 -0.315Z" fill="#191919" stroke-width="1"/><path d="M106.352 75.121a3.118 3.118 0 0 0 2.574 1.432 0.228 0.228 0 0 0 0 -0.443 4.024 4.024 0 0 1 -1.5 -0.652 2.787 2.787 0 0 1 -0.757 -0.885 17.37 17.37 0 0 0 1.688 -3.935 8.064 8.064 0 0 0 0.291 -2.236c0 -0.233 -0.384 -0.3 -0.419 -0.058a14.654 14.654 0 0 1 -1.06 4.029c-0.936 2.103 -1.436 1.827 -0.817 2.748Z" fill="#191919" stroke-width="1"/><path d="M112.559 69.846a1.06 1.06 0 0 0 -0.594 1.234 0.714 0.714 0 0 0 0.454 0.466 0.791 0.791 0 0 0 0.826 -0.221 0.876 0.876 0 0 0 -0.686 -1.479Z" fill="#191919" stroke-width="1"/><path d="M103.721 69.846a1.062 1.062 0 0 0 -0.594 1.234 0.759 0.759 0 0 0 1.293 0.245 0.879 0.879 0 0 0 -0.699 -1.479Z" fill="#191919" stroke-width="1"/><path d="M111.627 68.344a4.158 4.158 0 0 1 0.64 -0.9 2.271 2.271 0 0 1 0.571 -0.465c0.431 -0.259 0.735 -0.338 0.937 -0.483 0.3 -0.218 0.272 -0.523 0.088 -0.6 -0.831 -0.391 -2.974 1.124 -2.667 2.375a0.234 0.234 0 0 0 0.431 0.073Z" fill="#191919" stroke-width="1"/><path d="M102.673 67.971a6.147 6.147 0 0 1 1.316 -0.8 2.2 2.2 0 0 1 1.49 -0.058 0.311 0.311 0 0 0 0.268 -0.466c-0.288 -0.537 -1.3 -0.451 -1.921 -0.186a2.678 2.678 0 0 0 -1.5 1.234c-0.165 0.23 0.158 0.46 0.347 0.276Z" fill="#191919" stroke-width="1"/><path d="M105.782 79.324c0.048 0.269 0.582 3.139 0.792 3.808 0.857 2.857 3.133 3.544 4.878 2.224 2.107 -1.6 1.77 -4.432 1.77 -7.115a0.344 0.344 0 0 0 -0.512 -0.291 7.811 7.811 0 0 1 -5.135 1.141c-0.975 -0.091 -1.94 -0.582 -1.793 0.233Zm1.49 0.384a8.359 8.359 0 0 0 5.275 -0.861 25.324 25.324 0 0 1 -0.047 2.969c-0.3 2.863 -2.182 3.89 -3.493 3.423 -1.555 -0.545 -1.89 -2.548 -2.177 -3.982 -0.117 -0.571 -0.221 -1.153 -0.326 -1.723 0.072 0.036 0.685 0.159 0.768 0.174Z" fill="#191919" stroke-width="1"/><path d="M99.669 121.183c-1.014 -1.341 -3.208 -1.723 -4.879 -1.723a0.227 0.227 0 0 0 0 0.454 10.323 10.323 0 0 1 3.074 0.652 2.25 2.25 0 0 1 1.653 2.387c-0.093 0.443 -0.445 0.737 -0.209 0.944 0.492 0.486 1.452 -1.27 0.361 -2.714Z" fill="#191919" stroke-width="1"/><path d="M96.583 123.163a8.06 8.06 0 0 0 -2.294 -0.384c-0.209 -0.012 -0.267 0.337 -0.046 0.372a12.87 12.87 0 0 1 3.411 1.095 1.383 1.383 0 0 1 0.781 1.537 5.256 5.256 0 0 1 -0.536 1.9 0.306 0.306 0 0 0 0.524 0.314 4.154 4.154 0 0 0 0.466 -1.269c0.411 -1.891 0.111 -2.771 -2.306 -3.565Z" fill="#191919" stroke-width="1"/><path d="M96.7 127.122a7.554 7.554 0 0 0 -3.785 -1.281c-0.163 0.023 -0.279 0.256 -0.093 0.349 0.486 0.243 2.995 0.685 3.785 1.6 0.023 0.023 0.034 0.046 0.058 0.07 0 0.011 0.035 0.058 0.046 0.058a2.235 2.235 0 0 1 0.326 1.211c0 0.72 -0.389 0.946 -0.5 1.28a0.151 0.151 0 0 0 0.186 0.187 0.967 0.967 0 0 0 0.559 -0.513 2.343 2.343 0 0 0 -0.582 -2.961Z" fill="#191919" stroke-width="1"/><path d="M179.126 103.52a0.262 0.262 0 0 0 0.291 -0.384c-0.378 -0.615 -3.8 -2.615 -7.65 -2.282a8.338 8.338 0 0 0 -2.27 0.477 0.194 0.194 0 0 0 0.1 0.373 12 12 0 0 1 9.529 1.816Z" fill="#191919" stroke-width="1"/><path d="M171.08 99.724a5.5 5.5 0 0 1 0.373 -0.792c0.817 -1.88 2.5 -4.918 4.273 -5.95 1.1 -0.55 0.127 -1.852 -2.445 1.549a15.306 15.306 0 0 0 -2.259 4.1 3.832 3.832 0 0 0 -0.128 0.489c-0.035 0.174 -0.093 0.337 -0.14 0.512 -0.093 0.232 0.246 0.315 0.326 0.092Z" fill="#191919" stroke-width="1"/><path d="M175.179 97.954a1.274 1.274 0 0 0 -0.128 0.9 0.234 0.234 0 0 0 0.349 0.139c0.32 -0.213 0.317 -0.519 0.664 -1.385a23.929 23.929 0 0 1 3.085 -5.24c0.152 -0.233 -0.174 -0.454 -0.372 -0.279a14.92 14.92 0 0 0 -3.598 5.865Z" fill="#191919" stroke-width="1"/><path d="M178.427 100.76a0.216 0.216 0 0 0 0.338 0.047c0.505 -0.5 0.051 -1.53 2.317 -6.823 0.093 -0.233 -0.256 -0.35 -0.384 -0.163 -1.252 1.936 -2.637 6.173 -2.271 6.939Z" fill="#191919" stroke-width="1"/><path d="M146.477 90.863a7.586 7.586 0 0 1 0.372 3.307c0 0.562 0.411 0.561 0.548 0.349 0.149 -0.3 0.091 -0.123 0.14 -0.465a9.234 9.234 0 0 0 -1.747 -6c-2.094 -2.988 -5.639 -4.918 -9.14 -6.043 -0.233 -0.082 -0.408 0.3 -0.175 0.407 4.23 1.882 8.473 3.909 10.002 8.445Z" fill="#191919" stroke-width="1"/><path d="M147.42 95.788c3.47 2.6 5.331 6.737 6.847 10.7 4.53 11.91 5.3 18.061 5.973 19.329 0.093 0.2 0.4 0.093 0.4 -0.105 0 -2.234 -5.282 -20.742 -9.292 -26.594a14.4 14.4 0 0 0 -6.02 -5.24c-2.443 -1.037 -5.752 -1.376 -7.5 -3.225 -0.129 -0.129 -0.373 0.046 -0.257 0.2 2.357 3.02 6.042 2.08 9.849 4.935Z" fill="#191919" stroke-width="1"/><path d="M99.133 116.748a6.558 6.558 0 0 0 -2.526 -0.7c-3.791 -0.467 -8 -0.831 -11.073 1.7 -2.357 1.927 -1.972 3.914 -4.092 5.775 -0.359 -0.43 -0.9 -0.284 -1.4 -0.2a23.217 23.217 0 0 0 -7.428 2.8c-1.775 0 -5.563 1.575 -6.509 3.074 -0.082 0.128 0.08 0.253 0.2 0.2 0.886 -0.42 0.963 -0.645 2.328 -1.409a13.238 13.238 0 0 1 2.818 -1.141A18.488 18.488 0 0 0 67 130.894c-0.139 0.234 0.166 0.436 0.361 0.28a38.96 38.96 0 0 1 3.9 -3.4 22.877 22.877 0 0 1 8.9 -3.831c1.169 -0.194 0.636 -0.291 1.653 1.933a17.543 17.543 0 0 0 5.275 6.811c-1.418 2.139 -3.411 5.045 -5.042 7.01 -3.639 4.394 -8.449 8.173 -14.159 8.628 -6.8 0.54 -8.487 -5.92 -7.44 -12.621 1.607 -10.51 10.116 -22 17.978 -29.378a81.363 81.363 0 0 1 8.29 -6.73c0.222 -0.163 0.024 -0.536 -0.221 -0.384 -11.417 7.042 -26.525 24.9 -26.967 39.379a16.115 16.115 0 0 0 0.443 4.669c0.721 2.69 2.677 5.194 5.565 5.659 2.713 0.449 5.971 -0.458 8.5 -1.7 5.444 -2.7 9.273 -7.658 12.6 -12.738 0.419 -0.641 0.815 -1.293 1.246 -1.934 0.134 -0.2 -0.182 -0.574 -0.547 -0.209l-0.12 -0.117a10.375 10.375 0 0 0 3.112 -1.9c0.7 -0.6 0.821 -0.834 1.036 -0.978a6.33 6.33 0 0 1 2.48 0.408c1.75 0.621 1.713 0.994 2.143 0.8a0.145 0.145 0 0 0 0.07 -0.128c-0.012 -0.372 -0.49 -0.535 -0.769 -0.674a9.334 9.334 0 0 0 -3.109 -0.967 1.676 1.676 0 0 0 -1.094 0.07 6.139 6.139 0 0 0 -0.746 0.7 14.219 14.219 0 0 1 -3.475 2.321c-0.481 -0.473 -0.955 -0.95 -1.4 -1.458a19.159 19.159 0 0 1 -3.779 -6.508c1.693 -1.019 2.13 -3.511 3.534 -5.078 1.725 -1.912 4.385 -2.531 6.952 -2.538a32.116 32.116 0 0 1 5.693 0.593 2.787 2.787 0 0 1 1.759 1.153 1.676 1.676 0 0 1 0.07 1.665c-0.07 0.1 -0.164 0.233 -0.257 0.349a0.253 0.253 0 0 0 0.3 0.4c1.065 -0.458 1.119 -2.677 -0.602 -3.703Z" fill="#191919" stroke-width="1"/><path d="M104.885 93.984c-0.741 -5.417 -8.236 -6.716 -11.807 -2.818a7.3 7.3 0 0 0 -1.595 7.242 0.257 0.257 0 0 0 0.431 0.082 44.025 44.025 0 0 1 10.27 1.246 2.544 2.544 0 0 0 1.094 0.174c0.373 -0.093 0.548 -0.477 0.7 -0.791a9.031 9.031 0 0 0 0.907 -5.135Z" fill="#191919" stroke-width="1"/><path d="M95.081 130.906a0.25 0.25 0 0 0 -0.279 0.116 6.437 6.437 0 0 0 -0.384 1.747c-0.618 3.964 -0.418 4.731 -2.387 4.731a8.47 8.47 0 0 1 -3.039 -0.536c-0.665 -0.391 -0.451 -1.305 -0.233 -3.016 0.08 -0.719 0.2 -1.249 0.233 -1.455 0.023 -0.175 -0.012 -0.326 0.011 -0.5 0.023 -0.221 -0.3 -0.245 -0.361 -0.047a2.749 2.749 0 0 0 -0.3 0.92 22.213 22.213 0 0 0 -0.407 2.806c-0.105 1.263 0.3 1.915 1.712 2.224a8.5 8.5 0 0 0 3.493 0.152c1.192 -0.371 1.349 -1.367 1.537 -2.574 0.595 -3.654 0.806 -4.434 0.404 -4.568Z" fill="#1265a1" stroke-width="1"/><path d="M105.933 100.038c-0.271 -0.09 -3.778 -0.689 -3.9 -0.71 -1.625 -0.271 -9.21 -0.994 -12.517 -1.083a0.116 0.116 0 0 0 -0.105 0.175 0.125 0.125 0 0 0 -0.117 0.105A114.831 114.831 0 0 0 87 110.017c-0.066 0.331 0 0.142 4.879 0.652 -0.275 1.575 -0.343 1.468 -0.745 4.273a0.194 0.194 0 0 0 0.373 0.105 28.387 28.387 0 0 0 1.117 -4.285c0.759 0.072 2.9 0.3 5.112 0.594 -0.04 0.257 -0.068 0.652 -0.244 1.712 -0.14 0.85 -0.373 1.688 -0.431 2.55a0.194 0.194 0 0 0 0.361 0.093 16.054 16.054 0 0 0 0.954 -4.285c5.561 0.695 5.766 0.968 5.834 0.664 0.767 -4.328 1.345 -8.1 1.851 -11.9 0.012 -0.07 -0.061 -0.128 -0.128 -0.152Z" fill="#1265a1" stroke-width="1"/><path d="M14.681 104.51c-1.692 2.762 -5.02 10.255 -7.219 18.467a81.636 81.636 0 0 0 -2.445 13.006 2.373 2.373 0 0 0 0.046 0.792c0.023 0.151 0.221 0.1 0.268 0 0.881 -2.155 0.59 -13.016 9.466 -31.311 0.117 -0.244 0.222 -0.512 0.326 -0.768s-0.3 -0.418 -0.442 -0.186Z" fill="#191919" stroke-width="1"/><path d="M26.534 121.288c-1.721 1.153 -8.982 9.448 -11.655 18.269 -0.082 0.268 0.314 0.361 0.407 0.117a51.083 51.083 0 0 1 8.384 -14.485c-0.093 1.863 -0.641 14.368 -0.664 14.671a3.143 3.143 0 0 0 0.047 0.932 0.245 0.245 0 0 0 0.466 0 5.487 5.487 0 0 0 0.186 -1.63c0.008 -0.123 0.573 -10.9 0.535 -14.66 1.959 -2.238 2.105 -2.139 2.6 -2.876a0.232 0.232 0 0 0 -0.306 -0.338Z" fill="#191919" stroke-width="1"/><path d="M51.545 95.288c-1.194 1.251 -7.434 10.063 -12.345 20.212 -0.485 0.97 -0.527 0.907 -2.049 0.733 -8.555 -0.977 -16.93 -5.613 -22.891 -14.054a0.237 0.237 0 0 0 0.116 -0.175c0.712 -3.437 2.555 -6.025 4.215 -9.012 8.124 -14.519 6 -19.759 7.243 -29.936a84.018 84.018 0 0 1 2.4 -11.888 0.212 0.212 0 0 0 -0.407 -0.117 61.063 61.063 0 0 0 -2.4 10.514c-1.371 9.473 -0.037 12.729 -2.736 20.947C19.554 92 14.626 96.761 13.854 101.7a0.187 0.187 0 0 0 -0.2 0.279 28.973 28.973 0 0 0 6.556 7.545 32.94 32.94 0 0 0 16.9 7.321c-0.335 3.625 -1.321 22.144 -1.324 22.242 -0.03 1.119 -0.041 1.5 0.221 1.526a0.221 0.221 0 0 0 0.245 -0.163 13.608 13.608 0 0 0 0.233 -2.328c0.046 -0.766 1.061 -19.347 1.071 -21.224 0.872 0.108 1.567 0.181 2.037 -0.714 0.444 -0.864 0.683 -1.483 1.992 -3.971A148.876 148.876 0 0 1 51.929 95.59c0.105 -0.244 -0.196 -0.499 -0.384 -0.302Z" fill="#191919" stroke-width="1"/><path d="M76.661 61.917c0.37 0.087 0.612 -0.592 -0.978 -0.99a8.814 8.814 0 0 0 -2.911 0.07 1.822 1.822 0 0 0 -1.13 0.617c-0.116 0.151 0.035 0.419 0.222 0.291a4.571 4.571 0 0 1 2.293 -0.512 3.613 3.613 0 0 1 2.504 0.524Z" fill="#191919" stroke-width="1"/><path d="M72.364 57.76c0.17 1.727 -0.124 2.084 0.14 2.329a0.215 0.215 0 0 0 0.268 0.035c0.239 -0.155 0.221 -0.529 0.221 -1.2a9.357 9.357 0 0 0 -0.664 -3.621c-0.116 -0.245 -0.454 -0.058 -0.419 0.175a18.565 18.565 0 0 1 0.454 2.282Z" fill="#191919" stroke-width="1"/><path d="M74.3 59.425c0 0.333 -0.081 0.431 0.035 0.733 0.07 0.164 0.3 0.129 0.384 0a1.389 1.389 0 0 0 0.128 -0.721 14.01 14.01 0 0 0 -0.535 -4.879 0.2 0.2 0 0 0 -0.4 0.1 20.957 20.957 0 0 1 0.388 4.767Z" fill="#191919" stroke-width="1"/><path d="M76.125 59.891c0.036 0.2 0.314 0.163 0.373 0a18.887 18.887 0 0 0 -0.012 -4.518c-0.035 -0.245 -0.4 -0.256 -0.384 0 0.11 3.587 -0.078 3.964 0.023 4.518Z" fill="#191919" stroke-width="1"/><path d="M78.5 60.135a15.308 15.308 0 0 0 -0.2 -2.922c-0.036 -0.209 -0.361 -0.152 -0.361 0.046 0.011 0.85 0.07 1.7 0.058 2.55 -0.07 5.025 -1.979 5.6 -2.818 7.976a3.2 3.2 0 0 0 -0.192 0.886A15.06 15.06 0 0 1 70 68.008a2.1 2.1 0 0 0 0.318 -1.12c0.018 -1.044 -0.594 -1.952 -0.594 -2.992 0 -0.936 0.615 -1.93 0.559 -3.062a3.376 3.376 0 0 0 -0.536 -1.619c-0.175 -0.246 -0.23 -0.342 -0.512 -0.314a0.211 0.211 0 0 0 -0.14 0.14c-0.058 0.2 0.047 0.314 0.152 0.465a2.679 2.679 0 0 1 0.454 1.247c0.117 1.316 -0.8 2.324 -0.454 3.9 0.221 0.995 0.981 2.135 0.3 3.215 -1.062 -0.274 -0.158 0.828 -4.688 8.755 -0.431 0.745 -0.873 1.49 -1.293 2.247a14.749 14.749 0 0 0 -1.746 0.175c-2.03 0.318 -11.366 2.546 -14.6 3.644a0.12 0.12 0 0 0 0.058 0.233c3.111 -0.647 13.148 -3.407 16.056 -3.563 0.863 -0.06 1.582 0.084 2 0.012a0.154 0.154 0 0 0 0.036 -0.28 3.4 3.4 0 0 0 -1.41 -0.221 53.687 53.687 0 0 0 5.4 -10.48 20.581 20.581 0 0 0 5.647 0.8 49.6 49.6 0 0 1 -3.015 12.133c-0.649 1.66 -1.634 4.174 -2.865 5.344 -1.007 0.982 -3.827 2.208 -5.577 2.969C59 91.612 51.12 93.3 48.215 96.068a0.282 0.282 0 0 0 0.338 0.442 27.422 27.422 0 0 1 3.353 -1.921c3.427 -1.611 7.477 -2.5 11.12 -4a45.22 45.22 0 0 0 5.857 -2.876 7.562 7.562 0 0 0 2.422 -3.191 44.156 44.156 0 0 0 4.107 -15.158c0 -0.071 0.032 -0.78 0.038 -0.829 0.288 -2.314 2.94 -3.111 3.05 -8.4Z" fill="#191919" stroke-width="1"/><path d="M58.869 66.306a4.4 4.4 0 0 1 -2.1 0.024 4.867 4.867 0 0 0 2.1 -2.574 0.132 0.132 0 0 0 -0.163 -0.163 5.613 5.613 0 0 1 -2.771 -0.547 19.454 19.454 0 0 0 -8.36 -1.339 6.206 6.206 0 0 0 -2.585 0.71 3.7 3.7 0 0 0 -1.968 -1.35c-0.082 -0.024 -0.175 0.058 -0.14 0.139 0.884 2.527 -2.9 3.7 -2.981 8.186 0 0.5 0.307 0.04 1.176 1.141 0.051 0.065 0.117 0.128 0.187 0.105a6.286 6.286 0 0 0 4.028 -3.412c4.449 3.213 8.73 3.209 11.586 1.595a4.168 4.168 0 0 0 2.166 -2.352 0.136 0.136 0 0 0 -0.175 -0.163Z" fill="#1265a1" stroke-width="1"/><path d="M194.6 115.711c0 -19.21 0.911 -37.849 -0.035 -53.433 -0.5 -8.3 -2.038 -18.188 -9.711 -23 -4.215 -2.631 -9.339 -3.1 -14.182 -3.446 -15.935 -1.123 -33.908 -1.747 -46.331 -1.747 -23.788 0.21 -46.962 0.025 -70.363 1.584C49.007 36 43.8 36.2 39.2 38.326 30.845 42.2 28.554 51.443 27.827 60.554c-0.879 11.048 -0.709 55.87 -1.06 71.086 -0.116 4.878 -0.046 9.99 1.886 14.554a16.579 16.579 0 0 0 9.094 8.791 38.626 38.626 0 0 0 12.75 2.434c4.565 0.268 9.152 0.314 13.717 0.384 6.113 0.093 94.209 0 99.531 -0.128 6.252 -0.151 12.773 -0.093 18.734 -2.166a17.224 17.224 0 0 0 9.828 -7.941c3.761 -7.05 2.293 -15.094 2.293 -31.857Zm-3.994 32.09c-4.623 7.417 -14.38 8.1 -22.24 8.4 -15.4 0.587 -108.739 0.164 -110.662 0.117 -6.183 -0.151 -12.657 -0.093 -18.537 -2.224a15.55 15.55 0 0 1 -9.4 -8.71c-1.851 -4.587 -1.781 -9.711 -1.642 -14.578 0.721 -24.507 0.013 -56.394 1 -69.769 0.629 -8.535 2.771 -18.514 11.7 -21.96 4.785 -1.852 10.153 -1.887 15.207 -2.2 31.141 -1.918 67.711 -1.083 68.546 -1.5 15.582 0.116 30.14 0.671 45.1 1.711 4.925 0.35 10.188 0.653 14.5 3.342 7.308 4.553 8.707 14.541 9.118 23.183 0.713 15.04 -0.051 36.4 -0.035 52.758 0.001 16.447 1.523 24.739 -2.654 31.429Z" fill="#1265a1" stroke-width="1"/><path d="M137.069 89.443c-7.009 -11.605 1.2 -28.514 -9.048 -38.763a14.422 14.422 0 0 0 -8.662 -4.051 23.884 23.884 0 0 0 -10.666 0.7c-6.133 2.2 -9.808 8.12 -11.6 14.415 -1.884 6.637 -2.485 17.614 -4.285 21.215a5.21 5.21 0 0 1 -1.308 1.733 0.316 0.316 0 0 0 0.07 0.5 15 15 0 0 0 8.1 2.656 13.426 13.426 0 0 0 4.621 -0.686 8.5 8.5 0 0 0 5.945 1.919c0 0.1 0.642 3.177 -0.431 5.216 -0.064 0.123 -0.15 0.248 -0.222 0.377a34.949 34.949 0 0 1 -1.5 -3.928 0.194 0.194 0 0 0 -0.373 0.1 18.349 18.349 0 0 0 1.374 4.134c2.146 4.85 4.259 8.027 5.124 16.021 0.019 0.18 0.069 0.924 0.069 0.956 -3.439 8.939 -5.123 18.005 -6.159 27.491 -0.274 2.483 -1.4 14.515 -1.258 16.452 0.023 0.233 0.372 0.314 0.431 0.058 1.111 -5.1 0.07 -33.043 12.342 -53.573 3.235 -5.412 6.976 -9.319 8.532 -12.013a24.9 24.9 0 0 0 8.7 -0.294 0.481 0.481 0 0 0 0.204 -0.635Zm-35.351 -32.1a8.264 8.264 0 0 1 1.421 -3.236c0.6 -0.746 0.772 -0.719 0.989 -0.827a0.272 0.272 0 0 1 0.362 0.326c-0.183 0.617 -0.824 1.46 -1.13 2.224 -0.278 0.556 -0.535 1.953 -0.78 2.341 -0.474 0.731 -0.933 0.668 -1.013 0.372a5.788 5.788 0 0 1 0.151 -1.203Zm13.053 53.33A36.251 36.251 0 0 0 111.9 99.6a12.65 12.65 0 0 0 7.743 1.479 64.988 64.988 0 0 0 -4.872 9.591Zm-3.016 -11.633a0.232 0.232 0 0 0 -0.116 -0.023c-0.609 -1.341 -1.207 -2.5 -1.792 -3.751 0.6 -0.328 1.7 -2.574 0.965 -6.228a13 13 0 0 0 6.136 -2.072 18.433 18.433 0 0 0 6.323 -7.231 0.267 0.267 0 0 0 -0.489 -0.186c-0.21 0.279 -0.431 0.558 -0.618 0.849 -5.381 8.751 -13.491 9.326 -17.135 6.42 -2.876 -2.293 -3.525 -6.843 -3.672 -11.811a66.586 66.586 0 0 1 0.313 -10.226c1.991 0.929 6.127 1.332 10.178 0.131a0.3 0.3 0 0 0 0.175 -0.431 21.053 21.053 0 0 1 -1.84 -3.051 38.463 38.463 0 0 0 10.2 7.674 0.411 0.411 0 0 0 0.5 -0.64 4.91 4.91 0 0 1 -0.757 -1.13 24 24 0 0 0 4.3 4.041 0.42 0.42 0 0 0 0.5 -0.059 2.673 2.673 0 0 1 2.081 -0.788c2.284 0.481 3.043 4.328 1.3 6.074a2.905 2.905 0 0 1 -2.4 0.874 0.348 0.348 0 0 0 -0.419 0.233 28.074 28.074 0 0 0 -0.442 11.8 14.924 14.924 0 0 0 0.935 2.913c-1.745 2.274 -3.979 4.985 -5.931 8.02 -0.477 -0.211 -3.338 0.866 -8.295 -1.405Zm14.652 -7.2a16.116 16.116 0 0 1 -0.587 -1.933 12.292 12.292 0 0 0 1.733 0.379c-0.392 0.514 -0.765 1.033 -1.146 1.552Z" fill="#191919" stroke-width="1"/><path d="M53.955 70.382c-1.269 2.417 -2.347 7.916 -4.471 9.78 -1.334 1.134 -3.667 0.5 -5.228 -0.291a17.612 17.612 0 0 1 -3.377 -2.433 0.232 0.232 0 0 0 -0.314 0.314 2.785 2.785 0 0 0 0.687 0.745 10.294 10.294 0 0 0 6.078 2.865 3.441 3.441 0 0 0 3.4 -1.77 15.649 15.649 0 0 0 1.863 -4.075 43.613 43.613 0 0 0 1.642 -5.031 0.15 0.15 0 0 0 -0.28 -0.104Z" fill="#191919" stroke-width="1"/><path d="M41 70.731c0.093 0.175 0.326 0.047 0.291 -0.128a1.633 1.633 0 0 0 -2.578 -1.014 2.626 2.626 0 0 0 -1.055 3.354 2.039 2.039 0 0 0 1.4 1.013 9.063 9.063 0 0 1 -2.145 4.725c-0.085 0.1 -0.055 0.7 0.166 0.585a5.723 5.723 0 0 0 1.444 -1.9 13.158 13.158 0 0 0 1.152 -3.6 0.293 0.293 0 0 0 -0.279 -0.361 1.4 1.4 0 0 1 -1.129 -0.629C37.155 71.146 39.66 68.5 41 70.731Z" fill="#191919" stroke-width="1"/><path d="M47.318 74.364c-0.138 -0.1 -0.4 0.037 -0.3 0.3a2.275 2.275 0 0 0 1 0.873 0.98 0.98 0 0 0 1.118 -0.3 2.591 2.591 0 0 0 0.512 -1.222A21.648 21.648 0 0 0 50 70.766c0 -0.186 -0.3 -0.245 -0.337 -0.047 -0.331 1.671 -0.288 5.365 -1.782 4.192 -0.202 -0.151 -0.35 -0.388 -0.563 -0.547Z" fill="#191919" stroke-width="1"/><path d="M44.454 78.637c0.8 0.091 1.385 -0.755 1.8 -1.444a5.559 5.559 0 0 0 0.384 -0.71 8.754 8.754 0 0 0 1.793 0.617c0.186 0.047 0.326 -0.233 0.14 -0.326 -1.18 -0.59 -3.148 -1.09 -4.122 -2.759 -0.093 -0.163 -0.221 -0.443 -0.466 -0.3 -0.337 0.2 0.117 0.757 0.256 0.955a4.375 4.375 0 0 0 -0.733 1.35 3.553 3.553 0 0 0 -0.105 1.665 1.328 1.328 0 0 0 1.053 0.952Zm0.058 -3.668c1.1 1.21 0.8 0.177 0.2 1.5a0.77 0.77 0 0 0 -0.093 0.455 0.187 0.187 0 0 0 0.14 0.174 0.067 0.067 0 0 1 0.046 0.012c0.212 0 0.266 -0.344 0.338 -0.559a2.148 2.148 0 0 1 0.408 -0.687 7.984 7.984 0 0 0 0.733 0.431c-0.215 0.287 -0.868 1.722 -1.583 1.886 -0.759 0.163 -1.51 -1.073 -0.189 -3.212Z" fill="#191919" stroke-width="1"/><path d="M46.5 72.082a0.5 0.5 0 0 0 0.839 0.244 0.675 0.675 0 0 0 0.093 -0.78c-0.193 -0.338 -0.726 -0.357 -0.85 -0.046 -0.012 0.011 -0.012 0.034 -0.023 0.046a0.06 0.06 0 0 0 -0.024 0.047 0.653 0.653 0 0 0 -0.081 0.291c0 0.046 0.011 0.116 0.011 0.151 0.027 0.012 0.027 0.023 0.035 0.047Z" fill="#191919" stroke-width="1"/><path d="M50.672 73.491a0.5 0.5 0 0 0 0.186 0.279c0.023 0.012 0.035 0.035 0.058 0.047 0.719 0.359 1.126 -0.856 0.373 -1.107 -0.012 0 -0.023 0 -0.023 -0.011a0.7 0.7 0 0 0 -0.245 0 0.428 0.428 0 0 0 -0.268 0.209c-0.011 0.012 -0.011 0.035 -0.023 0.047a0.06 0.06 0 0 0 -0.023 0.047 0.52 0.52 0 0 0 -0.035 0.489Z" fill="#191919" stroke-width="1"/><path d="M141.749 164.312a0.28 0.28 0 0 0 0.548 0.07c0.1 -0.662 0.121 -3.943 0.209 -5.414h-0.663c0 0.147 -0.194 4.438 -0.094 5.344Z" fill="#191919" stroke-width="1"/><path d="M183.155 95.6c-1.055 1.733 -1.594 5.429 -2.2 8.081a22.57 22.57 0 0 1 -2.142 6 12.784 12.784 0 0 0 -1.176 4.437 10.852 10.852 0 0 0 0.016 2.194 24.51 24.51 0 0 1 -9.721 -1.731 3.767 3.767 0 0 0 0.4 -3c-0.7 -2.707 -2.529 -3.56 -1.607 -7.313 0.561 -2.2 2.068 -5.375 0.466 -7.79a0.332 0.332 0 0 0 -0.571 0.338c1.389 2.082 0.116 4.891 -0.418 6.894 -1.076 3.884 0.368 4.84 1.338 7.37a4.235 4.235 0 0 1 0.268 2.654 3.328 3.328 0 0 1 -0.312 0.682 0.817 0.817 0 0 0 -0.5 0.133c-0.816 1.089 -7.634 14.114 -7.894 14.649 -0.315 -0.079 -2.031 1.3 -3.423 3.307 -1.682 2.444 -2.547 5.825 -2.283 6.776a0.205 0.205 0 0 0 0.373 0.047c0.485 -1.083 0.142 -4.907 4.9 -9.292a30.194 30.194 0 0 0 -2.969 9.3 0.288 0.288 0 0 0 0.559 0.081 34.51 34.51 0 0 1 1.327 -4.96c2 -5.724 9.2 -17.984 9.664 -19.387a25.176 25.176 0 0 0 8.558 1.944c0.711 0.035 1.421 0.035 2.131 0.012a68.555 68.555 0 0 1 -1.444 14.136 66.964 66.964 0 0 1 -4.308 13.541c-1.858 3.972 -4.549 7.5 -8.721 8.849a8.739 8.739 0 0 1 -6.194 -0.186c-4.126 -1.622 -9.642 -6.433 -12.389 -13.134 -0.175 -0.442 -0.373 -0.873 -0.559 -1.305 0.186 -1.3 1.991 -11.806 2.038 -12.109a0.218 0.218 0 0 0 -0.42 -0.116c-1.226 4.548 -3.215 16.166 -3.982 28.818h0.664c0.325 -5.463 0.845 -10.6 1.525 -15.439a25.136 25.136 0 0 0 6.206 9.477c2.159 2.077 5.511 4.5 8.442 5.054a10.973 10.973 0 0 0 8.966 -2.62c3.485 -2.85 5.4 -7.323 6.893 -11.551a70.693 70.693 0 0 0 3.959 -23.776 0.3 0.3 0 0 0 -0.3 -0.384l-0.082 0a1.974 1.974 0 0 0 -0.023 -0.261c-0.238 -3.562 1 -5.74 1.91 -7.731 1.745 -3.877 2 -8.585 3.26 -11.935 0.074 -0.2 0.1 -0.4 0.163 -0.594 0.019 -0.216 -0.274 -0.345 -0.388 -0.16Z" fill="#191919" stroke-width="1"/><path d="M83 155.486c0.956 -11.472 1.582 -11.936 2.329 -16.79a0.236 0.236 0 0 0 -0.454 -0.128c-1.445 4.393 -2.37 11.934 -2.667 16.918Z" fill="#191919" stroke-width="1"/><path d="M82.855 158.979h-0.792a54.375 54.375 0 0 0 0.187 6.719c0.07 0.268 0.524 0.3 0.57 0 0.196 -1.24 -0.082 -2.014 0.035 -6.719Z" fill="#191919" stroke-width="1"/><path d="M176.611 46.454a3.372 3.372 0 0 0 -5.042 3.039c-0.691 3.461 4.939 4.478 6.474 1.9a3.68 3.68 0 0 0 -1.432 -4.939Z" fill="#1265a1" stroke-width="1"/></svg></svg>
